<svg width="35" height="35" viewBox="0 0 35 35" fill="none" xmlns="http://www.w3.org/2000/svg">
<path fill-rule="evenodd" clip-rule="evenodd" d="M23.1108 2.91669C23.4978 2.91661 23.8689 3.07035 24.1425 3.34405L29.469 8.67287C30.0382 9.24233 30.0382 10.1653 29.469 10.7348L14.3878 25.8227C14.1142 26.0963 13.7432 26.25 13.3563 26.25H8.02087C7.21546 26.25 6.56254 25.5971 6.56254 24.7917V19.4833C6.56254 19.0968 6.71595 18.7261 6.98906 18.4527L22.0792 3.34444C22.3527 3.07064 22.7238 2.91676 23.1108 2.91669ZM23.1114 6.43826L9.47921 20.0868V23.3334H12.7521L26.3756 9.70385L23.1114 6.43826ZM3.64587 30.625C3.64587 29.8196 4.29879 29.1667 5.10421 29.1667H31.3542C32.1596 29.1667 32.8125 29.8196 32.8125 30.625C32.8125 31.4304 32.1596 32.0834 31.3542 32.0834H5.10421C4.29879 32.0834 3.64587 31.4304 3.64587 30.625Z" fill="#B85526"/>
</svg>
